{
  "source": "C:\\Users\\Peter\\Desktop\\stuff\\MIUN\\quantitative_research\\video_compression\\videos\\BVI-HD\\RockWave_1920x1080_30fps.mp4",
  "output": "C:\\Users\\Peter\\Desktop\\stuff\\MIUN\\quantitative_research\\video_compression\\compressed_videos\\BVI-HD\\hevc\\2\\RockWave_1920x1080_30fps_hevc.mp4",
  "codec": "hevc",
  "ok": "Input #0, mov,mp4,m4a,3gp,3g2,mj2, from 'C:\\Users\\Peter\\Desktop\\stuff\\MIUN\\quantitative_research\\video_compression\\videos\\BVI-HD\\RockWave_1920x1080_30fps.mp4':\n  Metadata:\n    major_brand     : isom\n    minor_version   : 512\n    compatible_brands: isomiso2avc1mp41\n    encoder         : Lavf54.28.101\n  Duration: 00:00:05.00, start: 0.000000, bitrate: 303557 kb/s\n  Stream #0:0[0x1](und): Video: h264 (High 4:4:4 Predictive) (avc1 / 0x31637661), yuv420p(progressive), 1920x1080, 303553 kb/s, 30 fps, 30 tbr, 30 tbn (default)\n    Metadata:\n      handler_name    : VideoHandler\n      vendor_id       : [0][0][0][0]\n[out#0/mp4 @ 0000014f4b1fab00] Codec AVOption b:a (set bitrate (in bits/s)) has not been used for any stream. The most likely reason is either wrong type (e.g. a video option with no video streams) or that it is a private option of some decoder which was not actually used for any stream.\nStream mapping:\n  Stream #0:0 -> #0:0 (h264 (native) -> hevc (libx265))\nPress [q] to stop, [?] for help\n[libx265 @ 0000014f4bfd75c0] Unknown option: \"aq-mode.\nx265 [info]: HEVC encoder version 4.1+190-8f11c33ac\nx265 [info]: build info [Windows][GCC 15.1.0][64 bit] 10bit\nx265 [info]: using cpu capabilities: MMX2 SSE2Fast LZCNT SSSE3 SSE4.2 AVX FMA3 BMI2 AVX2\nx265 [info]: Main 10 profile, Level-4 (Main tier)\nx265 [info]: Thread pool created using 12 threads\nx265 [info]: Slices                              : 1\nx265 [info]: frame threads / pool features       : 3 / wpp(17 rows)\nx265 [info]: Coding QT: max CU size, min CU size : 64 / 8\nx265 [info]: Residual QT: max TU size, max depth : 32 / 1 inter / 1 intra\nx265 [info]: ME / range / subpel / merge         : star / 57 / 3 / 3\nx265 [info]: Keyframe min / max / scenecut / bias  : 25 / 250 / 40 / 5.00 \nx265 [info]: Lookahead / bframes / badapt        : 25 / 4 / 2\nx265 [info]: b-pyramid / weightp / weightb       : 1 / 1 / 0\nx265 [info]: References / ref-limit  cu / depth  : 4 / on / on\nx265 [info]: AQ: mode / str / qg-size / cu-tree  : 2 / 1.0 / 32 / 1\nx265 [info]: Rate Control / qCompress            : ABR-2000 kbps / 0.60\nx265 [info]: VBV/HRD buffer / max-rate / init    : 2000 / 2000 / 0.750\nx265 [info]: tools: rect limit-modes rd=4 psy-rd=2.00 rdoq=2 psy-rdoq=1.00\nx265 [info]: tools: rskip mode=1 signhide tmvp strong-intra-smoothing lslices=4\nx265 [info]: tools: deblock sao dhdr10-info\nOutput #0, mp4, to 'C:\\Users\\Peter\\Desktop\\stuff\\MIUN\\quantitative_research\\video_compression\\compressed_videos\\BVI-HD\\hevc\\2\\RockWave_1920x1080_30fps_hevc.mp4':\n  Metadata:\n    major_brand     : isom\n    minor_version   : 512\n    compatible_brands: isomiso2avc1mp41\n    encoder         : Lavf62.3.100\n  Stream #0:0(und): Video: hevc (hev1 / 0x31766568), yuv420p10le(tv, progressive), 1920x1080, q=2-31, 2000 kb/s, 30 fps, 15360 tbn (default)\n    Metadata:\n      encoder         : Lavc62.11.100 libx265\n      handler_name    : VideoHandler\n      vendor_id       : [0][0][0][0]\n    Side data:\n      cpb: bitrate max/min/avg: 2000000/0/2000000 buffer size: 2000000 vbv_delay: N/A\nframe=    0 fps=0.0 q=0.0 size=       0KiB time=N/A bitrate=N/A speed=N/A elapsed=0:00:00.51    \nframe=    0 fps=0.0 q=0.0 size=       0KiB time=N/A bitrate=N/A speed=N/A elapsed=0:00:01.04    \nframe=    0 fps=0.0 q=0.0 size=       0KiB time=N/A bitrate=N/A speed=N/A elapsed=0:00:01.55    \nframe=    1 fps=0.5 q=45.4 size=       0KiB time=-00:00:00.03 bitrate=N/A speed=N/A elapsed=0:00:02.06    \nframe=    4 fps=1.6 q=51.0 size=       0KiB time=00:00:00.06 bitrate=   5.3kbits/s speed=0.0258x elapsed=0:00:02.57    \nframe=    8 fps=2.6 q=51.0 size=       0KiB time=00:00:00.20 bitrate=   1.8kbits/s speed=0.0645x elapsed=0:00:03.10    \nframe=   11 fps=3.0 q=50.1 size=       0KiB time=00:00:00.30 bitrate=   1.2kbits/s speed=0.0829x elapsed=0:00:03.61    \nframe=   14 fps=3.4 q=47.3 size=       0KiB time=00:00:00.40 bitrate=   0.9kbits/s speed=0.0967x elapsed=0:00:04.13    \nframe=   16 fps=3.4 q=51.0 size=       0KiB time=00:00:00.46 bitrate=   0.8kbits/s speed= 0.1x elapsed=0:00:04.64    \nframe=   20 fps=3.9 q=51.0 size=       0KiB time=00:00:00.60 bitrate=   0.6kbits/s speed=0.116x elapsed=0:00:05.15    \nframe=   23 fps=4.0 q=50.0 size=       0KiB time=00:00:00.70 bitrate=   0.5kbits/s speed=0.123x elapsed=0:00:05.68    \nframe=   25 fps=4.0 q=51.0 size=       0KiB time=00:00:00.76 bitrate=   0.5kbits/s speed=0.124x elapsed=0:00:06.19    \nframe=   29 fps=4.3 q=51.0 size=       0KiB time=00:00:00.90 bitrate=   0.4kbits/s speed=0.134x elapsed=0:00:06.70    \nframe=   32 fps=4.4 q=49.6 size=     256KiB time=00:00:01.00 bitrate=2097.5kbits/s speed=0.138x elapsed=0:00:07.23    \nframe=   34 fps=4.4 q=51.0 size=     256KiB time=00:00:01.06 bitrate=1966.4kbits/s speed=0.138x elapsed=0:00:07.74    \nframe=   37 fps=4.5 q=51.0 size=     256KiB time=00:00:01.16 bitrate=1797.9kbits/s speed=0.141x elapsed=0:00:08.25    \nframe=   40 fps=4.6 q=49.2 size=     256KiB time=00:00:01.26 bitrate=1655.9kbits/s speed=0.144x elapsed=0:00:08.76    \nframe=   42 fps=4.5 q=51.0 size=     256KiB time=00:00:01.33 bitrate=1573.1kbits/s speed=0.144x elapsed=0:00:09.28    \nframe=   45 fps=4.6 q=50.9 size=     256KiB time=00:00:01.43 bitrate=1463.4kbits/s speed=0.146x elapsed=0:00:09.80    \nframe=   48 fps=4.7 q=49.7 size=     256KiB time=00:00:01.53 bitrate=1367.9kbits/s speed=0.149x elapsed=0:00:10.31    \nframe=   51 fps=4.7 q=47.3 size=     256KiB time=00:00:01.63 bitrate=1284.2kbits/s speed=0.151x elapsed=0:00:10.83    \nframe=   53 fps=4.7 q=51.0 size=     256KiB time=00:00:01.70 bitrate=1233.8kbits/s speed=0.15x elapsed=0:00:11.35    \nframe=   56 fps=4.7 q=49.4 size=     256KiB time=00:00:01.80 bitrate=1165.3kbits/s speed=0.152x elapsed=0:00:11.86    \nframe=   59 fps=4.8 q=46.8 size=     256KiB time=00:00:01.90 bitrate=1103.9kbits/s speed=0.153x elapsed=0:00:12.38    \nframe=   63 fps=4.9 q=46.8 size=     256KiB time=00:00:02.03 bitrate=1031.6kbits/s speed=0.158x elapsed=0:00:12.89    \nframe=   66 fps=4.9 q=50.6 size=     512KiB time=00:00:02.13 bitrate=1966.2kbits/s speed=0.159x elapsed=0:00:13.42    \nframe=   68 fps=4.9 q=49.3 size=     512KiB time=00:00:02.20 bitrate=1906.7kbits/s speed=0.158x elapsed=0:00:13.92    \nframe=   72 fps=5.0 q=46.3 size=     512KiB time=00:00:02.33 bitrate=1797.7kbits/s speed=0.161x elapsed=0:00:14.44    \nframe=   75 fps=5.0 q=50.3 size=     512KiB time=00:00:02.43 bitrate=1723.8kbits/s speed=0.163x elapsed=0:00:14.95    \nframe=   79 fps=5.1 q=50.3 size=     512KiB time=00:00:02.56 bitrate=1634.3kbits/s speed=0.166x elapsed=0:00:15.48    \nframe=   81 fps=5.1 q=46.5 size=     512KiB time=00:00:02.63 bitrate=1592.9kbits/s speed=0.165x elapsed=0:00:15.99    \nframe=   85 fps=5.2 q=46.1 size=     512KiB time=00:00:02.76 bitrate=1516.1kbits/s speed=0.168x elapsed=0:00:16.50    \nframe=   88 fps=5.2 q=49.8 size=     512KiB time=00:00:02.86 bitrate=1463.3kbits/s speed=0.168x elapsed=0:00:17.02    \nframe=   91 fps=5.2 q=48.2 size=     512KiB time=00:00:02.96 bitrate=1413.9kbits/s speed=0.169x elapsed=0:00:17.53    \nframe=   94 fps=5.2 q=46.1 size=     512KiB time=00:00:03.06 bitrate=1367.8kbits/s speed=0.17x elapsed=0:00:18.05    \nframe=   98 fps=5.3 q=46.3 size=     512KiB time=00:00:03.20 bitrate=1310.8kbits/s speed=0.172x elapsed=0:00:18.57    \nframe=  101 fps=5.3 q=49.7 size=     768KiB time=00:00:03.30 bitrate=1906.6kbits/s speed=0.173x elapsed=0:00:19.09    \nframe=  105 fps=5.4 q=49.5 size=     768KiB time=00:00:03.43 bitrate=1832.6kbits/s speed=0.175x elapsed=0:00:19.60    \nframe=  107 fps=5.3 q=47.7 size=     768KiB time=00:00:03.50 bitrate=1797.7kbits/s speed=0.174x elapsed=0:00:20.11    \nframe=  111 fps=5.4 q=47.3 size=     768KiB time=00:00:03.63 bitrate=1731.7kbits/s speed=0.176x elapsed=0:00:20.63    \nframe=  114 fps=5.4 q=46.1 size=     768KiB time=00:00:03.73 bitrate=1685.3kbits/s speed=0.177x elapsed=0:00:21.14    \nframe=  117 fps=5.4 q=49.6 size=     768KiB time=00:00:03.83 bitrate=1641.3kbits/s speed=0.177x elapsed=0:00:21.65    \nframe=  121 fps=5.5 q=49.7 size=     768KiB time=00:00:03.96 bitrate=1586.2kbits/s speed=0.179x elapsed=0:00:22.18    \nframe=  122 fps=5.4 q=46.3 size=     768KiB time=00:00:04.00 bitrate=1573.0kbits/s speed=0.176x elapsed=0:00:22.69    \nframe=  126 fps=5.4 q=46.2 size=     768KiB time=00:00:04.13 bitrate=1522.2kbits/s speed=0.178x elapsed=0:00:23.21    \nframe=  129 fps=5.4 q=49.5 size=     768KiB time=00:00:04.23 bitrate=1486.3kbits/s speed=0.178x elapsed=0:00:23.73    \nframe=  133 fps=5.5 q=49.6 size=    1024KiB time=00:00:04.36 bitrate=1921.1kbits/s speed=0.18x elapsed=0:00:24.25    \nframe=  136 fps=5.5 q=49.5 size=    1024KiB time=00:00:04.46 bitrate=1878.1kbits/s speed=0.18x elapsed=0:00:24.75    \nframe=  139 fps=5.5 q=47.4 size=    1024KiB time=00:00:04.56 bitrate=1837.0kbits/s speed=0.181x elapsed=0:00:25.27    \nframe=  142 fps=5.5 q=45.6 size=    1024KiB time=00:00:04.66 bitrate=1797.6kbits/s speed=0.181x elapsed=0:00:25.78    \nframe=  146 fps=5.5 q=49.3 size=    1024KiB time=00:00:04.80 bitrate=1747.7kbits/s speed=0.182x elapsed=0:00:26.30    \n[mp4 @ 0000014f4b201440] Starting second pass: moving the moov atom to the beginning of the file\n[out#0/mp4 @ 0000014f4b1fab00] video:1198KiB audio:0KiB subtitle:0KiB other streams:0KiB global headers:2KiB muxing overhead: 0.431850%\nframe=  150 fps=5.6 q=49.1 Lsize=    1203KiB time=00:00:04.93 bitrate=1997.3kbits/s speed=0.184x elapsed=0:00:26.79    \nx265 [info]: frame I:      1, Avg QP:45.38  kb/s: 6250.32 \nx265 [info]: frame P:     36, Avg QP:46.67  kb/s: 3875.22 \nx265 [info]: frame B:    113, Avg QP:49.81  kb/s: 1313.47 \nx265 [info]: Weighted P-Frames: Y:16.7% UV:11.1%\n\nencoded 150 frames in 26.45s (5.67 fps), 1961.20 kb/s, Avg QP:49.03\n",
  "seconds": 27.11311101913452,
  "probe_out": {}
}